<svg xmlns="http://www.w3.org/2000/svg" width="300" height="80" viewBox="0 0 300 80">
  <!-- Círculo azul de fundo -->
  <circle cx="40" cy="40" r="35" fill="#2563eb"/>
  
  <!-- Ícone de camião (Truck) em branco -->
  <g transform="translate(18, 18) scale(1.8)" fill="none" stroke="white" stroke-width="2" stroke-linecap="round" stroke-linejoin="round">
    <path d="M14 18V6a2 2 0 0 0-2-2H4a2 2 0 0 0-2 2v11a1 1 0 0 0 1 1h2"/>
    <path d="M15 18H9"/>
    <path d="M19 18h2a1 1 0 0 0 1-1v-3.65a1 1 0 0 0-.22-.624l-3.48-4.35A1 1 0 0 0 17.52 8H14"/>
    <circle cx="17" cy="18" r="2"/>
    <circle cx="7" cy="18" r="2"/>
  </g>
  
  <!-- Texto TVDEFleet -->
  <text x="90" y="50" font-family="Arial, sans-serif" font-size="32" font-weight="bold" fill="#1e293b">TVDEFleet</text>
</svg>